<svg xmlns="http://www.w3.org/2000/svg" width="1600" height="900" viewBox="0 0 1600 900">
  <rect width="1600" height="900" rx="36" fill="#FFF3DE"/>
  <text x="80" y="78" font-family="Arial, sans-serif" font-size="42" font-weight="700" fill="#4A3D38">CAT TIER SYSTEM · CONCEPT v0.1</text>
  <text x="80" y="116" font-family="Arial, sans-serif" font-size="20" fill="#7B6A60">Soft rounded sticker storybook · concept only · not runtime sprites</text>
  <g font-family="Arial, sans-serif" fill="#4A3D38" text-anchor="middle">
    <!-- cards row 1 -->
    <g transform="translate(70 160)">
      <rect width="280" height="290" rx="28" fill="#FFF9EF" stroke="#E8D4B8" stroke-width="3"/>
      <text x="140" y="38" font-size="18" font-weight="700">L1 · Round Kitten</text>
      <g transform="translate(140 150)">
        <path d="M-52,-52 L-28,-92 L-5,-58 Z" fill="#F6C87B" stroke="#5B4A42" stroke-width="7" stroke-linejoin="round"/>
        <path d="M52,-52 L28,-92 L5,-58 Z" fill="#F6C87B" stroke="#5B4A42" stroke-width="7" stroke-linejoin="round"/>
        <circle r="72" fill="#F6C87B" stroke="#5B4A42" stroke-width="7"/>
        <circle cx="-24" cy="-8" r="7" fill="#4A3D38"/><circle cx="24" cy="-8" r="7" fill="#4A3D38"/>
        <path d="M0 7 l-6 7 h12z" fill="#D98576"/><path d="M-15 18 q15 12 30 0" fill="none" stroke="#5B4A42" stroke-width="4" stroke-linecap="round"/>
      </g>
      <text x="140" y="262" font-size="15" fill="#806F64">single color · clean circle</text>
    </g>

    <g transform="translate(365 160)">
      <rect width="280" height="290" rx="28" fill="#FFF9EF" stroke="#E8D4B8" stroke-width="3"/>
      <text x="140" y="38" font-size="18" font-weight="700">L2 · Ear-tip Kitten</text>
      <g transform="translate(140 148)">
        <path d="M-58,-54 L-30,-100 L-4,-60 Z" fill="#F2B9A7" stroke="#5B4A42" stroke-width="7" stroke-linejoin="round"/>
        <path d="M58,-54 L30,-100 L4,-60 Z" fill="#F2B9A7" stroke="#5B4A42" stroke-width="7" stroke-linejoin="round"/>
        <path d="M-30,-100 L-20,-77 L-41,-72 Z" fill="#D8857B"/><path d="M30,-100 L20,-77 L41,-72 Z" fill="#D8857B"/>
        <ellipse rx="78" ry="72" fill="#F2B9A7" stroke="#5B4A42" stroke-width="7"/>
        <circle cx="-26" cy="-8" r="7" fill="#4A3D38"/><circle cx="26" cy="-8" r="7" fill="#4A3D38"/>
        <path d="M0 8 l-6 7 h12z" fill="#C96872"/><path d="M-16 19 q16 11 32 0" fill="none" stroke="#5B4A42" stroke-width="4" stroke-linecap="round"/>
      </g>
      <text x="140" y="262" font-size="15" fill="#806F64">wider face · colored ear tips</text>
    </g>

    <g transform="translate(660 160)">
      <rect width="280" height="290" rx="28" fill="#FFF9EF" stroke="#E8D4B8" stroke-width="3"/>
      <text x="140" y="38" font-size="18" font-weight="700">L3 · Stripe Kitten</text>
      <g transform="translate(140 145)">
        <path d="M-60,-54 L-31,-104 L-5,-62 Z" fill="#9FB7C8" stroke="#5B4A42" stroke-width="7" stroke-linejoin="round"/>
        <path d="M60,-54 L31,-104 L5,-62 Z" fill="#9FB7C8" stroke="#5B4A42" stroke-width="7" stroke-linejoin="round"/>
        <ellipse rx="84" ry="76" fill="#9FB7C8" stroke="#5B4A42" stroke-width="7"/>
        <path d="M-23,-48 q10 13 20 0 M0,-54 q0 16 0 24 M23,-48 q-10 13-20 0" fill="none" stroke="#6E8290" stroke-width="7" stroke-linecap="round"/>
        <circle cx="-28" cy="-8" r="7" fill="#4A3D38"/><circle cx="28" cy="-8" r="7" fill="#4A3D38"/>
        <path d="M0 10 l-6 7 h12z" fill="#C9877B"/><path d="M-17 21 q17 11 34 0" fill="none" stroke="#5B4A42" stroke-width="4" stroke-linecap="round"/>
      </g>
      <text x="140" y="262" font-size="15" fill="#806F64">three forehead stripes</text>
    </g>

    <g transform="translate(955 160)">
      <rect width="280" height="290" rx="28" fill="#FFF9EF" stroke="#E8D4B8" stroke-width="3"/>
      <text x="140" y="38" font-size="18" font-weight="700">L4 · Patch Cat</text>
      <g transform="translate(140 143)">
        <path d="M-62,-55 L-32,-106 L-5,-64 Z" fill="#F3D7A2" stroke="#5B4A42" stroke-width="7" stroke-linejoin="round"/>
        <path d="M62,-55 L32,-106 L5,-64 Z" fill="#F3D7A2" stroke="#5B4A42" stroke-width="7" stroke-linejoin="round"/>
        <ellipse rx="90" ry="80" fill="#F3D7A2" stroke="#5B4A42" stroke-width="7"/>
        <path d="M-86,-18 q35,-55 74,-26 q-17,30 -4,66 q-40,16 -70,-4z" fill="#D98263" opacity=".95"/>
        <path d="M32,-67 q44,20 49,58 q-30,10 -51,-6 q10,-24 2,-52z" fill="#7C7C83" opacity=".92"/>
        <circle cx="-29" cy="-7" r="7" fill="#4A3D38"/><circle cx="29" cy="-7" r="7" fill="#4A3D38"/>
        <path d="M0 11 l-6 7 h12z" fill="#C9877B"/><path d="M-18 22 q18 11 36 0" fill="none" stroke="#5B4A42" stroke-width="4" stroke-linecap="round"/>
      </g>
      <text x="140" y="262" font-size="15" fill="#806F64">large internal patch blocks</text>
    </g>

    <g transform="translate(1250 160)">
      <rect width="280" height="290" rx="28" fill="#FFF9EF" stroke="#E8D4B8" stroke-width="3"/>
      <text x="140" y="38" font-size="18" font-weight="700">L5 · Bell Cat</text>
      <g transform="translate(140 140)">
        <path d="M-64,-56 L-34,-109 L-5,-66 Z" fill="#A8CDAF" stroke="#5B4A42" stroke-width="7" stroke-linejoin="round"/>
        <path d="M64,-56 L34,-109 L5,-66 Z" fill="#A8CDAF" stroke="#5B4A42" stroke-width="7" stroke-linejoin="round"/>
        <ellipse rx="96" ry="84" fill="#A8CDAF" stroke="#5B4A42" stroke-width="7"/>
        <circle cx="-31" cy="-10" r="7" fill="#4A3D38"/><circle cx="31" cy="-10" r="7" fill="#4A3D38"/>
        <path d="M0 8 l-6 7 h12z" fill="#C9877B"/><path d="M-19 20 q19 12 38 0" fill="none" stroke="#5B4A42" stroke-width="4" stroke-linecap="round"/>
        <path d="M-61,51 q61,25 122,0" fill="none" stroke="#E88782" stroke-width="10" stroke-linecap="round"/>
        <circle cx="0" cy="69" r="12" fill="#FFD66B" stroke="#5B4A42" stroke-width="4"/>
      </g>
      <text x="140" y="262" font-size="15" fill="#806F64">compact collar · inset bell</text>
    </g>

    <!-- row 2 -->
    <g transform="translate(70 490)">
      <rect width="280" height="320" rx="28" fill="#FFF9EF" stroke="#E8D4B8" stroke-width="3"/>
      <text x="140" y="38" font-size="18" font-weight="700">L6 · Scarf Cat</text>
      <g transform="translate(140 158)">
        <path d="M-68,-58 L-36,-114 L-6,-69 Z" fill="#D8A8C7" stroke="#5B4A42" stroke-width="7" stroke-linejoin="round"/>
        <path d="M68,-58 L36,-114 L6,-69 Z" fill="#D8A8C7" stroke="#5B4A42" stroke-width="7" stroke-linejoin="round"/>
        <ellipse rx="102" ry="89" fill="#D8A8C7" stroke="#5B4A42" stroke-width="7"/>
        <circle cx="-33" cy="-10" r="7" fill="#4A3D38"/><circle cx="33" cy="-10" r="7" fill="#4A3D38"/>
        <path d="M0 9 l-6 7 h12z" fill="#B76F78"/><path d="M-20 21 q20 12 40 0" fill="none" stroke="#5B4A42" stroke-width="4" stroke-linecap="round"/>
        <path d="M-77,44 q77,34 154,0 q-12,28 -39,35 q-38,10 -76,0 q-28,-7 -39,-35z" fill="#7DB7AF" stroke="#5B4A42" stroke-width="4"/>
      </g>
      <text x="140" y="286" font-size="15" fill="#806F64">scarf remains inside body width</text>
    </g>

    <g transform="translate(365 490)">
      <rect width="280" height="320" rx="28" fill="#FFF9EF" stroke="#E8D4B8" stroke-width="3"/>
      <text x="140" y="38" font-size="18" font-weight="700">L7 · Fluffy Cat</text>
      <g transform="translate(140 158)">
        <path d="M-72,-62 L-38,-118 L-8,-72 Z" fill="#C6B6D8" stroke="#5B4A42" stroke-width="7" stroke-linejoin="round"/>
        <path d="M72,-62 L38,-118 L8,-72 Z" fill="#C6B6D8" stroke="#5B4A42" stroke-width="7" stroke-linejoin="round"/>
        <path d="M-106,3 q-8,-52 28,-88 q33,-33 78,-32 q45,-1 78,32 q36,36 28,88 q8,50 -29,83 q-31,30 -77,29 q-46,1 -77,-29 q-37,-33 -29,-83z" fill="#C6B6D8" stroke="#5B4A42" stroke-width="7" stroke-linejoin="round"/>
        <circle cx="-35" cy="-11" r="7" fill="#4A3D38"/><circle cx="35" cy="-11" r="7" fill="#4A3D38"/>
        <path d="M0 9 l-6 7 h12z" fill="#B76F78"/><path d="M-21 21 q21 13 42 0" fill="none" stroke="#5B4A42" stroke-width="4" stroke-linecap="round"/>
      </g>
      <text x="140" y="286" font-size="15" fill="#806F64">soft edge lobes · controlled fuzz</text>
    </g>

    <g transform="translate(660 490)">
      <rect width="280" height="320" rx="28" fill="#FFF9EF" stroke="#E8D4B8" stroke-width="3"/>
      <text x="140" y="38" font-size="18" font-weight="700">L8 · Plush Cat</text>
      <g transform="translate(140 157)">
        <path d="M-76,-64 L-41,-123 L-8,-76 Z" fill="#9CC8C1" stroke="#5B4A42" stroke-width="7" stroke-linejoin="round"/>
        <path d="M76,-64 L41,-123 L8,-76 Z" fill="#9CC8C1" stroke="#5B4A42" stroke-width="7" stroke-linejoin="round"/>
        <ellipse rx="116" ry="101" fill="#9CC8C1" stroke="#5B4A42" stroke-width="7"/>
        <path d="M-87,31 q24,44 59,54 M87,31 q-24,44 -59,54" fill="none" stroke="#6FA99F" stroke-width="10" stroke-linecap="round"/>
        <path d="M-52,-62 q25,20 52,0 q27,20 52,0" fill="none" stroke="#6FA99F" stroke-width="9" stroke-linecap="round"/>
        <circle cx="-37" cy="-12" r="8" fill="#4A3D38"/><circle cx="37" cy="-12" r="8" fill="#4A3D38"/>
        <path d="M0 10 l-7 8 h14z" fill="#B76F78"/><path d="M-23 23 q23 13 46 0" fill="none" stroke="#5B4A42" stroke-width="4" stroke-linecap="round"/>
      </g>
      <text x="140" y="286" font-size="15" fill="#806F64">large plush mass · inner fur arcs</text>
    </g>

    <g transform="translate(955 490)">
      <rect width="280" height="320" rx="28" fill="#FFF9EF" stroke="#E8D4B8" stroke-width="3"/>
      <text x="140" y="38" font-size="18" font-weight="700">L9 · Moon Cat</text>
      <g transform="translate(140 157)">
        <path d="M-80,-66 L-43,-128 L-8,-78 Z" fill="#787994" stroke="#5B4A42" stroke-width="7" stroke-linejoin="round"/>
        <path d="M80,-66 L43,-128 L8,-78 Z" fill="#787994" stroke="#5B4A42" stroke-width="7" stroke-linejoin="round"/>
        <ellipse rx="124" ry="108" fill="#787994" stroke="#5B4A42" stroke-width="7"/>
        <path d="M0,-82 a27,27 0 1,0 24,41 a21,21 0 1,1 -24,-41z" fill="#FFD66B" opacity=".95"/>
        <circle cx="-40" cy="-12" r="8" fill="#FFF3DE"/><circle cx="40" cy="-12" r="8" fill="#FFF3DE"/>
        <path d="M0 11 l-7 8 h14z" fill="#EBA6A0"/><path d="M-24 24 q24 14 48 0" fill="none" stroke="#FFF3DE" stroke-width="4" stroke-linecap="round"/>
        <circle cx="-78" cy="42" r="6" fill="#C7B8E4"/><circle cx="78" cy="42" r="6" fill="#C7B8E4"/>
      </g>
      <text x="140" y="286" font-size="15" fill="#806F64">moon mark · deep soft violet</text>
    </g>

    <g transform="translate(1250 490)">
      <rect width="280" height="320" rx="28" fill="#FFF9EF" stroke="#E8D4B8" stroke-width="3"/>
      <text x="140" y="38" font-size="18" font-weight="700">L10 · Cloud Grand Cat</text>
      <g transform="translate(140 156)">
        <path d="M-84,-68 L-46,-133 L-8,-80 Z" fill="#F1D5B8" stroke="#5B4A42" stroke-width="7" stroke-linejoin="round"/>
        <path d="M84,-68 L46,-133 L8,-80 Z" fill="#F1D5B8" stroke="#5B4A42" stroke-width="7" stroke-linejoin="round"/>
        <path d="M-132,-12 q-7,-54 35,-86 q28,-33 66,-24 q31,-24 62,0 q38,-9 66,24 q42,32 35,86 q7,57 -38,91 q-37,31 -94,27 q-57,4 -94,-27 q-45,-34 -38,-91z" fill="#F1D5B8" stroke="#5B4A42" stroke-width="7" stroke-linejoin="round"/>
        <path d="M-75,-56 q24,-20 48,0 q27,-24 54,0 q24,-20 48,0" fill="none" stroke="#D6AE88" stroke-width="11" stroke-linecap="round"/>
        <circle cx="-43" cy="-10" r="9" fill="#4A3D38"/><circle cx="43" cy="-10" r="9" fill="#4A3D38"/>
        <path d="M0 13 l-8 9 h16z" fill="#C9877B"/><path d="M-26 27 q26 15 52 0" fill="none" stroke="#5B4A42" stroke-width="5" stroke-linecap="round"/>
        <path d="M-89,48 q42,38 89,37 q47,1 89,-37" fill="none" stroke="#E9C4A1" stroke-width="13" stroke-linecap="round"/>
      </g>
      <text x="140" y="286" font-size="15" fill="#806F64">largest cloud mass · layered soft marks</text>
    </g>
  </g>

  <text x="800" y="862" font-family="Arial, sans-serif" font-size="17" text-anchor="middle" fill="#7B6A60">Hierarchy concept: size + internal motif + controlled fluff. Accessories never exceed perceived collision silhouette.</text>
</svg>